#!OML:ASF E:\emotionWalksFemale\Project 1\Capture day 1\Session 1\Female1.ASF
:FULLY-SPECIFIED
:DEGREES
2447
root 8.1235 15.1494 38.744 356.618 3.50563 -362.155
lowerback 4.03347 1.52573 1.92466
upperback -6.02201 2.22509 0.148237
thorax -8.52847 0.973638 -1.17292
lowerneck -8.43325 -4.65735 -8.92419
upperneck 23.7835 -7.7665 11.4669
head 9.66752 -3.27027 4.66833
rclavicle 9.69075e-015 1.41137e-014
rhumerus 0.766978 -25.1123 -40.7811
rradius 29.9337
rwrist 7.75716
rhand -6.67339 -38.5363
rfingers 7.12502
rthumb 19.1849 -67.6101
lclavicle 9.69075e-015 1.41137e-014
lhumerus 20.0836 -5.98385 56.9315
lradius 31.8469
lwrist -18.4767
lhand -4.22618 -40.5014
lfingers 7.12502
lthumb 21.5368 -11.6788
rfemur 5.16848 10.1534 32.2041
rtibia 22.9605
rfoot -28.6222 -34.4753
rtoes 29.2955
lfemur -13.227 -28.6648 -12.8605
ltibia 30.5151
lfoot -21.3509 8.67864
ltoes -31.3118
2448
root 8.14846 15.1591 38.7748 357.04 3.02596 -362.461
lowerback 3.7574 1.60191 2.25715
upperback -6.06363 2.35022 0.186914
thorax -8.3969 1.01713 -1.32289
lowerneck -8.16077 -4.77976 -8.96313
upperneck 23.0748 -7.89833 11.5175
head 9.38543 -3.35087 4.66206
rclavicle -6.36111e-015 6.16232e-015
rhumerus -0.667957 -26.258 -39.6981
rradius 29.9976
rwrist 8.98424
rhand -7.58525 -38.9336
rfingers 7.12502
rthumb 18.3079 -68.092
lclavicle -6.36111e-015 6.16232e-015
lhumerus 19.2324 -5.85407 56.9883
lradius 31.8666
lwrist -17.0791
lhand -5.48776 -40.557
lfingers 7.12502
lthumb 20.3247 -11.6006
rfemur 4.73078 9.8874 32.259
rtibia 22.7127
rfoot -26.7798 -34.5602
rtoes 28.2304
lfemur -13.5542 -29.0136 -12.5154
ltibia 30.8963
lfoot -21.7169 9.77457
ltoes -32.9947
2449
root 8.17058 15.1612 38.7981 357.376 2.63369 -362.67
lowerback 3.639 1.6112 2.35158
upperback -6.04715 2.37111 0.257179
thorax -8.30818 1.02557 -1.29941
lowerneck -8.18826 -4.91012 -8.99214
upperneck 22.6171 -8.05767 11.611
head 9.25595 -3.42593 4.66878
rclavicle -1.83876e-014 -7.95139e-016
rhumerus -2.24787 -25.1962 -37.9924
rradius 30.0086
rwrist 7.99439
rhand -7.97929 -39.2203
rfingers 7.12502
rthumb 17.9288 -68.4139
lclavicle -1.83876e-014 -7.95139e-016
lhumerus 18.2036 -5.14851 57.431
lradius 31.9597
lwrist -16.1862
lhand -6.90773 -40.267
lfingers 7.12502
lthumb 18.9596 -11.171
rfemur 4.21346 9.19508 32.2149
rtibia 22.9913
rfoot -25.0999 -34.7072
rtoes 24.9909
lfemur -13.7192 -28.93 -12.2721
ltibia 30.9346
lfoot -21.671 10.6385
ltoes -36.2782
2450
root 8.19083 15.1644 38.8147 357.727 2.32696 -362.707
lowerback 3.56659 1.61501 2.29987
upperback -6.04432 2.37029 0.264246
thorax -8.26468 1.02943 -1.26044
lowerneck -8.0232 -5.07157 -9.1719
upperneck 22.0617 -8.27665 11.8693
head 9.07802 -3.53459 4.75473
rclavicle 2.51463e-014 0
rhumerus -3.61421 -26.1372 -36.9204
rradius 30.1502
rwrist 8.86645
rhand -7.8361 -39.2299
rfingers 7.12502
rthumb 18.0665 -68.4108
lclavicle 2.51463e-014 0
lhumerus 17.3523 -4.65822 57.8034
lradius 31.768
lwrist -14.9334
lhand -8.2602 -40.3291
lfingers 7.12502
lthumb 17.6585 -11.111
rfemur 3.68922 8.48592 32.016
rtibia 23.3097
rfoot -26.1582 -34.0679
rtoes 28.124
lfemur -13.9788 -28.7376 -12.1883
ltibia 30.9655
lfoot -21.5216 11.3928
ltoes -39.0389
2451
root 8.21348 15.172 38.8352 357.911 1.80177 -362.503
lowerback 3.69474 1.70056 2.13305
upperback -6.04137 2.47 0.188327
thorax -8.33608 1.08465 -1.26207
lowerneck -7.4939 -5.25526 -9.46358
upperneck 21.2395 -8.52198 12.1987
head 8.75415 -3.67657 4.88335
rclavicle 1.55052e-014 6.16232e-015
rhumerus -4.83023 -26.6928 -35.9629
rradius 30.1177
rwrist 9.2521
rhand -8.91646 -40.7858
rfingers 7.12502
rthumb 17.0269 -70.0596
lclavicle 1.55052e-014 6.16232e-015
lhumerus 16.7966 3.4107 63.1399
lradius 30.3709
lwrist -22.5103
lhand -8.79074 -42.8889
lfingers 7.12502
lthumb 17.1479 -13.6256
rfemur 3.23678 7.89635 31.5428
rtibia 23.7777
rfoot -25.7028 -33.5773
rtoes 28.1653
lfemur -13.8259 -28.9792 -12.5237
ltibia 30.8993
lfoot -21.7507 12.3455
ltoes -38.4116
2452
root 8.23528 15.1796 38.8564 358 1.18039 -362.395
lowerback 3.96103 1.67571 1.9563
upperback -6.19615 2.4381 0.265214
thorax -8.67312 1.07675 -1.09186
lowerneck -6.4659 -5.33356 -9.91282
upperneck 20.4349 -8.61138 12.4202
head 8.33083 -3.78659 5.03152
rclavicle -3.28989e-014 -1.64991e-014
rhumerus -5.58051 -26.5158 -35.3143
rradius 29.7751
rwrist 9.39756
rhand -10.3591 -42.2136
rfingers 7.12502
rthumb 15.6379 -71.6016
lclavicle -3.28989e-014 -1.64991e-014
lhumerus 15.4595 8.58841 65.9695
lradius 30.1704
lwrist -26.347
lhand -9.79545 -44.0112
lfingers 7.12502
lthumb 16.1806 -14.6665
rfemur 2.83631 7.49211 31.1969
rtibia 24.3794
rfoot -25.3592 -32.7972
rtoes 29.3739
lfemur -13.4615 -29.2528 -12.812
ltibia 30.7429
lfoot -21.9242 13.2876
ltoes -37.1808
2453
root 8.25433 15.1845 38.8785 358.131 0.553614 -362.27
lowerback 4.14456 1.76414 1.83649
upperback -5.96169 2.53517 0.11427
thorax -8.52026 1.12931 -1.19648
lowerneck -6.91707 -5.747 -9.86684
upperneck 19.8779 -9.15575 12.6101
head 8.30627 -4.01817 5.00591
rclavicle 5.46658e-015 -7.95139e-015
rhumerus -7.36662 -27.2082 -34.0877
rradius 30.1179
rwrist 10.6233
rhand -8.13785 -40.7405
rfingers 7.12502
rthumb 17.7762 -69.9481
lclavicle 5.46658e-015 -7.95139e-015
lhumerus 14.9295 10.387 66.677
lradius 30.2726
lwrist -26.1703
lhand -10.8944 -43.9402
lfingers 7.12502
lthumb 15.1222 -14.5126
rfemur 2.35109 7.17894 30.9066
rtibia 25.0744
rfoot -26.0918 -32.1444
rtoes 31.3393
lfemur -13.1414 -29.5084 -13.087
ltibia 30.5391
lfoot -22.2833 14.0437
ltoes -35.1137
2454
root 8.27166 15.1854 38.9 358.294 -0.133186 -362.017
lowerback 4.26638 1.73827 1.46091
upperback -5.93258 2.47288 0.144455
thorax -8.57846 1.12292 -0.951911
lowerneck -6.42729 -5.94231 -10.3313
upperneck 19.0894 -9.39823 12.968
head 8.02513 -4.17106 5.17819
rclavicle -2.52457e-014 8.15017e-015
rhumerus -8.935 -25.8305 -33.3356
rradius 30.843
rwrist 8.54547
rhand -12.1512 -43.8901
rfingers 7.12502
rthumb 13.9113 -73.4048
lclavicle -2.52457e-014 8.15017e-015
lhumerus 13.3647 10.7685 66.2832
lradius 30.6023
lwrist -23.8941
lhand -12.0737 -43.436
lfingers 7.12502
lthumb 13.986 -13.9265
rfemur 1.77944 6.69623 30.5016
rtibia 25.7631
rfoot -25.6669 -31.915
rtoes 30.0532
lfemur -12.893 -29.6799 -13.4683
ltibia 30.3799
lfoot -21.8572 15.4848
ltoes -38.6357
2455
root 8.28991 15.1882 38.9219 358.471 -0.917991 -361.85
lowerback 4.27732 1.73956 1.26737
upperback -5.87398 2.45382 0.10321
thorax -8.52732 1.12497 -0.884214
lowerneck -6.24014 -6.13492 -10.2917
upperneck 18.5476 -9.64632 13.0221
head 7.84607 -4.29995 5.15675
rclavicle -8.49804e-015 3.37934e-015
rhumerus -10.4228 -25.017 -32.8139
rradius 31.5551
rwrist 7.83942
rhand -12.662 -45.8295
rfingers 7.12502
rthumb 13.419 -75.3773
lclavicle -8.49804e-015 3.37934e-015
lhumerus 11.7481 10.7008 65.6034
lradius 30.9183
lwrist -21.2667
lhand -13.4414 -42.9964
lfingers 7.12502
lthumb 12.6676 -13.4006
rfemur 1.19343 6.13354 30.1387
rtibia 26.4509
rfoot -25.7873 -31.1319
rtoes 31.4007
lfemur -12.6775 -29.6311 -13.7581
ltibia 30.2709
lfoot -22.8846 15.6596
ltoes -35.1456
2456
root 8.30835 15.1947 38.9432 358.697 -1.67426 -361.818
lowerback 4.25237 1.68553 1.22468
upperback -5.80648 2.37417 0.0838895
thorax -8.4416 1.08892 -0.86928
lowerneck -6.70552 -6.23787 -9.70423
upperneck 18.5577 -9.74703 12.5615
head 7.89564 -4.32712 4.87456
rclavicle 1.17283e-014 1.11319e-014
rhumerus -11.6616 -24.9954 -32.3105
rradius 31.7983
rwrist 8.8588
rhand -10.7407 -45.5197
rfingers 7.12502
rthumb 15.2703 -74.9361
lclavicle 1.17283e-014 1.11319e-014
lhumerus 10.1599 11.4971 65.3236
lradius 31.1699
lwrist -19.4744
lhand -14.76 -42.8444
lfingers 7.12502
lthumb 11.3962 -13.1741
rfemur 0.465127 5.44487 29.8924
rtibia 27.2343
rfoot -26.3163 -30.1776
rtoes 33.8394
lfemur -12.5257 -29.6145 -13.8807
ltibia 30.1368
lfoot -21.5079 17.7988
ltoes -42.6264
2457
root 8.32712 15.1987 38.9612 358.917 -2.41804 -361.766
lowerback 4.35462 1.61484 1.23042
upperback -5.78948 2.27895 0.0630028
thorax -8.48419 1.04034 -0.886788
lowerneck -5.9299 -6.62085 -10.183
upperneck 17.5086 -10.2478 12.9463
head 7.52037 -4.61938 5.03711
rclavicle 1.46107e-014 0
rhumerus -12.9053 -24.6629 -31.9665
rradius 32.292
rwrist 9.33777
rhand -9.62284 -45.3823
rfingers 7.12502
rthumb 16.3468 -74.7134
lclavicle 1.46107e-014 0
lhumerus 8.37766 12.957 65.3312
lradius 31.5328
lwrist -18.3649
lhand -15.9352 -42.8243
lfingers 7.12502
lthumb 10.2626 -13.0947
rfemur -0.36987 4.61415 29.6409
rtibia 28.1237
rfoot -24.6596 -30.1717
rtoes 29.8458
lfemur -12.3503 -29.4915 -14.0139
ltibia 29.9462
lfoot -21.3575 18.6478
ltoes -43.2942
2458
root 8.34607 15.205 38.9784 359.181 -3.25398 -361.454
lowerback 4.40201 1.58325 1.0287
upperback -5.81795 2.21145 -0.0460756
thorax -8.54737 1.01492 -0.883336
lowerneck -5.17257 -6.89679 -10.4291
upperneck 16.5124 -10.603 13.1831
head 7.13458 -4.83782 5.13075
rclavicle -1.13307e-014 -9.93923e-015
rhumerus -14.2937 -24.2385 -31.6979
rradius 32.8133
rwrist 9.27168
rhand -9.54556 -44.6023
rfingers 7.12502
rthumb 16.4212 -73.9273
lclavicle -1.13307e-014 -9.93923e-015
lhumerus 6.4628 15.3902 65.6568
lradius 31.9341
lwrist -18.5043
lhand -16.9049 -43.0951
lfingers 7.12502
lthumb 9.32712 -13.3215
rfemur -1.27645 3.68614 29.1119
rtibia 29.0579
rfoot -25.9105 -28.9754
rtoes 33.0951
lfemur -12.1827 -29.4549 -14.4354
ltibia 29.7287
lfoot -22.9639 18.1111
ltoes -35.6367
2459
root 8.36395 15.2149 38.9959 359.43 -4.1538 -361.085
lowerback 4.43149 1.54427 0.698191
upperback -5.84227 2.12437 -0.12701
thorax -8.60147 0.98941 -0.775215
lowerneck -4.6173 -7.11939 -10.5291
upperneck 15.644 -10.8657 13.2475
head 6.80186 -5.00535 5.15067
rclavicle 7.7526e-015 1.09332e-014
rhumerus -15.6675 -23.6774 -31.5665
rradius 33.3647
rwrist 8.62788
rhand -9.83651 -44.2427
rfingers 7.12502
rthumb 16.1411 -73.5906
lclavicle 7.7526e-015 1.09332e-014
lhumerus 4.05214 14.8641 64.6067
lradius 32.6473
lwrist -15.6521
lhand -17.9062 -42.8276
lfingers 7.12502
lthumb 8.36084 -13.0131
rfemur -2.24323 2.6725 28.5888
rtibia 30.0233
rfoot -25.9679 -28.7413
rtoes 33.0329
lfemur -12.0125 -29.5185 -14.9278
ltibia 29.5075
lfoot -21.7418 20.1711
ltoes -41.9257
2460
root 8.38122 15.2189 39.0132 359.566 -5.06351 -360.987
lowerback 4.55307 1.42819 0.611047
upperback -5.80475 1.96462 -0.0770177
thorax -8.63945 0.917955 -0.657992
lowerneck -4.22244 -7.34909 -10.891
upperneck 14.9718 -11.1443 13.4392
head 6.58748 -5.17724 5.25326
rclavicle 1.60022e-014 -1.19271e-015
rhumerus -16.9363 -23.0234 -31.6481
rradius 34.0735
rwrist 7.96814
rhand -9.66923 -45.0133
rfingers 7.12502
rthumb 16.3021 -74.348
lclavicle 1.60022e-014 -1.19271e-015
lhumerus 1.9012 16.7603 64.3919
lradius 32.8353
lwrist -15.2317
lhand -18.415 -43.0635
lfingers 7.12502
lthumb 7.8698 -13.23
rfemur -3.13643 1.61028 28.4485
rtibia 30.9647
rfoot -26.0206 -29.0702
rtoes 33.0503
lfemur -11.7508 -29.3988 -15.1516
ltibia 29.3463
lfoot -23.995 19.2316
ltoes -31.9039
